HIERARCHY
ROOT Hips
{
  OFFSET 5.84602e-005 68.8428 3.50346
  CHANNELS 6 Xposition Yposition Zposition Zrotation Xrotation Yrotation
  JOINT Spine
  {
    OFFSET 0 8.597 -4.6522
    CHANNELS 3 Zrotation Xrotation Yrotation
    JOINT Spine1
    {
      OFFSET 0 7.8454 0.4098
      CHANNELS 3 Zrotation Xrotation Yrotation
      JOINT Spine2
      {
        OFFSET 0 9.7078 -2.1609
        CHANNELS 3 Zrotation Xrotation Yrotation
        JOINT Neck
        {
          OFFSET 0 21.8761 -0.4549
          CHANNELS 3 Zrotation Xrotation Yrotation
          JOINT Head
          {
            OFFSET 0 12.3537 3.3602
            CHANNELS 3 Zrotation Xrotation Yrotation
            End Site
            {
              OFFSET 0.0001 18.9506 0.5657
            }
          }
        }
        JOINT LeftShoulder
        {
          OFFSET 2.2086 21.1115 7.2329
          CHANNELS 3 Zrotation Xrotation Yrotation
          JOINT LeftArm
          {
            OFFSET 13.1193 3.0282 -4.8998
            CHANNELS 3 Zrotation Xrotation Yrotation
            JOINT LeftForeArm
            {
              OFFSET 27.4081 -0.0973053 -0.2375
              CHANNELS 3 Zrotation Xrotation Yrotation
              JOINT LeftHand
              {
                OFFSET 22.8641 0.0662994 -0.1369
                CHANNELS 3 Zrotation Xrotation Yrotation
                JOINT LeftHandIndex1
                {
                  OFFSET 8.8614 0.775009 2.4612
                  CHANNELS 3 Zrotation Xrotation Yrotation
                  JOINT LeftHandIndex2
                  {
                    OFFSET 3.3146 -0.808304 0.5841
                    CHANNELS 3 Zrotation Xrotation Yrotation
                    JOINT LeftHandIndex3
                    {
                      OFFSET 2.2628 -0.552002 0.3989
                      CHANNELS 3 Zrotation Xrotation Yrotation
                      End Site
                      {
                        OFFSET 1.6102 -0.4807 0.2612
                      }
                    }
                  }
                }
                JOINT LeftHandMiddle1
                {
                  OFFSET 8.9937 0.895004 0.2143
                  CHANNELS 3 Zrotation Xrotation Yrotation
                  JOINT LeftHandMiddle2
                  {
                    OFFSET 4.0984 0.0113983 -0.0242
                    CHANNELS 3 Zrotation Xrotation Yrotation
                    JOINT LeftHandMiddle3
                    {
                      OFFSET 2.2716 0.00689697 -0.0138001
                      CHANNELS 3 Zrotation Xrotation Yrotation
                      End Site
                      {
                        OFFSET 2.0404 -0.1441 0.0027
                      }
                    }
                  }
                }
                JOINT LeftHandRing1
                {
                  OFFSET 8.5234 0.597198 -2.0164
                  CHANNELS 3 Zrotation Xrotation Yrotation
                  JOINT LeftHandRing2
                  {
                    OFFSET 3.7188 -0.188293 -0.2328
                    CHANNELS 3 Zrotation Xrotation Yrotation
                    JOINT LeftHandRing3
                    {
                      OFFSET 2.1191 -0.106598 -0.1332
                      CHANNELS 3 Zrotation Xrotation Yrotation
                      End Site
                      {
                        OFFSET 1.8737 -0.2304 -0.0886
                      }
                    }
                  }
                }
                JOINT LeftHandPinky1
                {
                  OFFSET 7.9094 -0.601089 -3.4825
                  CHANNELS 3 Zrotation Xrotation Yrotation
                  JOINT LeftHandPinky2
                  {
                    OFFSET 2.2874 -0.477005 -0.6314
                    CHANNELS 3 Zrotation Xrotation Yrotation
                    JOINT LeftHandPinky3
                    {
                      OFFSET 1.6774 -0.349396 -0.4633
                      CHANNELS 3 Zrotation Xrotation Yrotation
                      End Site
                      {
                        OFFSET 1.4888 -0.4091 -0.3416
                      }
                    }
                  }
                }
                JOINT LeftHandThumb1
                {
                  OFFSET 1.833 -1.3875 1.3896
                  CHANNELS 3 Zrotation Xrotation Yrotation
                  JOINT LeftHandThumb2
                  {
                    OFFSET 3.4129 -1.121 2.5732
                    CHANNELS 3 Zrotation Xrotation Yrotation
                    JOINT LeftHandThumb3
                    {
                      OFFSET 2.2474 -0.804199 1.6192
                      CHANNELS 3 Zrotation Xrotation Yrotation
                      End Site
                      {
                        OFFSET 1.6527 -0.5689 1.1317
                      }
                    }
                  }
                }
              }
            }
          }
        }
        JOINT RightShoulder
        {
          OFFSET -2.2086 21.1115 7.2329
          CHANNELS 3 Zrotation Xrotation Yrotation
          JOINT RightArm
          {
            OFFSET -13.1216 3.0287 -4.9007
            CHANNELS 3 Zrotation Xrotation Yrotation
            JOINT RightForeArm
            {
              OFFSET -27.4081 -0.0973053 -0.2375
              CHANNELS 3 Zrotation Xrotation Yrotation
              JOINT RightHand
              {
                OFFSET -22.8641 0.0664063 -0.1369
                CHANNELS 3 Zrotation Xrotation Yrotation
                JOINT RightHandIndex1
                {
                  OFFSET -8.8614 0.774994 2.4612
                  CHANNELS 3 Zrotation Xrotation Yrotation
                  JOINT RightHandIndex2
                  {
                    OFFSET -3.3146 -0.808304 0.5841
                    CHANNELS 3 Zrotation Xrotation Yrotation
                    JOINT RightHandIndex3
                    {
                      OFFSET -2.2628 -0.552002 0.3989
                      CHANNELS 3 Zrotation Xrotation Yrotation
                      End Site
                      {
                        OFFSET -1.6102 -0.4807 0.2612
                      }
                    }
                  }
                }
                JOINT RightHandMiddle1
                {
                  OFFSET -8.9937 0.894989 0.2143
                  CHANNELS 3 Zrotation Xrotation Yrotation
                  JOINT RightHandMiddle2
                  {
                    OFFSET -4.0984 0.0113983 -0.0242
                    CHANNELS 3 Zrotation Xrotation Yrotation
                    JOINT RightHandMiddle3
                    {
                      OFFSET -2.2716 0.00691223 -0.0138001
                      CHANNELS 3 Zrotation Xrotation Yrotation
                      End Site
                      {
                        OFFSET -2.0404 -0.1441 0.0027
                      }
                    }
                  }
                }
                JOINT RightHandRing1
                {
                  OFFSET -8.5234 0.597198 -2.0164
                  CHANNELS 3 Zrotation Xrotation Yrotation
                  JOINT RightHandRing2
                  {
                    OFFSET -3.7188 -0.188309 -0.2328
                    CHANNELS 3 Zrotation Xrotation Yrotation
                    JOINT RightHandRing3
                    {
                      OFFSET -2.1191 -0.106598 -0.1332
                      CHANNELS 3 Zrotation Xrotation Yrotation
                      End Site
                      {
                        OFFSET -1.8737 -0.2304 -0.0886
                      }
                    }
                  }
                }
                JOINT RightHandPinky1
                {
                  OFFSET -7.9094 -0.601105 -3.4825
                  CHANNELS 3 Zrotation Xrotation Yrotation
                  JOINT RightHandPinky2
                  {
                    OFFSET -2.2874 -0.477005 -0.6314
                    CHANNELS 3 Zrotation Xrotation Yrotation
                    JOINT RightHandPinky3
                    {
                      OFFSET -1.6774 -0.349396 -0.4633
                      CHANNELS 3 Zrotation Xrotation Yrotation
                      End Site
                      {
                        OFFSET -1.4888 -0.4091 -0.3416
                      }
                    }
                  }
                }
                JOINT RightHandThumb1
                {
                  OFFSET -1.833 -1.38751 1.3896
                  CHANNELS 3 Zrotation Xrotation Yrotation
                  JOINT RightHandThumb2
                  {
                    OFFSET -3.41299 -1.12099 2.5732
                    CHANNELS 3 Zrotation Xrotation Yrotation
                    JOINT RightHandThumb3
                    {
                      OFFSET -2.24741 -0.804108 1.6192
                      CHANNELS 3 Zrotation Xrotation Yrotation
                      End Site
                      {
                        OFFSET -1.6527 -0.5689 1.1317
                      }
                    }
                  }
                }
              }
            }
          }
        }
      }
    }
  }
  JOINT RightUpLeg
  {
    OFFSET -9.1966 3.8861 -0.7581
    CHANNELS 3 Zrotation Xrotation Yrotation
    JOINT RightLeg
    {
      OFFSET -0.7359 -41.0265 0
      CHANNELS 3 Zrotation Xrotation Yrotation
      JOINT RightFoot
      {
        OFFSET 0 -40.2855 0
        CHANNELS 3 Zrotation Xrotation Yrotation
        JOINT RightToeBase
        {
          OFFSET 0 -5.6122 11.7359
          CHANNELS 3 Zrotation Xrotation Yrotation
          End Site
          {
            OFFSET 0 0 7.8731
          }
        }
      }
    }
  }
  JOINT LeftUpLeg
  {
    OFFSET 9.1965 3.8864 -0.7581
    CHANNELS 3 Zrotation Xrotation Yrotation
    JOINT LeftLeg
    {
      OFFSET 0.7359 -41.0268 0
      CHANNELS 3 Zrotation Xrotation Yrotation
      JOINT LeftFoot
      {
        OFFSET 0 -40.2855 0
        CHANNELS 3 Zrotation Xrotation Yrotation
        JOINT LeftToeBase
        {
          OFFSET 0 -5.6122 11.7359
          CHANNELS 3 Zrotation Xrotation Yrotation
          End Site
          {
            OFFSET 0 0 7.8731
          }
        }
      }
    }
  }
}
MOTION
Frames:	6
Frame Time:	0.0333333
5.84602e-005 68.8428 3.50346 0 0 -0 0 0 -0 0 0 -0 0 0 -0 0 0 -0 0 0 -0 0 0 -0 0 0 -0 0 0 -0 0 0 -0 0 0 -0 0 0 -0 0 0 -0 0 0 -0 -0.0146107 -8.87603e-005 -2.63497e-007 2.99804e-018 -2.42657e-020 -1.42182e-022 0 0 -0 -0.0187562 -0.001176 5.858e-005 5.06224e-018 3.88251e-019 1.21329e-020 0 0 -0 -0.012269 -0.00324817 0.000675346 -1.74678e-018 3.88251e-019 -0 0 0 -0 0 0 -0 0 0 -0 0 0 -0 0 0 -0 0 0 -0 0 0 -0 0 0 -0 0 0 -0 0 0 -0 0 0 -0 0.0149955 -9.10982e-005 2.64101e-007 -9.69331e-018 1.21329e-020 -4.7394e-023 0 0 -0 0.0189956 -0.00119102 -5.96516e-005 -5.41541e-019 0 2.42657e-020 0 0 -0 0.0122698 -0.00324857 -0.000673756 -2.00796e-019 0 -1.94126e-019 0 0 -0 0 0 -0 0 0 -0 3.39842 1.33031 -0.0637918 -5.65207e-008 0.834868 -0.000436188 -3.39935 -2.16518 -0.0642563 -8.89002e-024 -1.18485e-023 -1.48106e-024 -3.39844 1.35642 0.0640283 -3.18788e-007 0.782166 -0.000588827 3.39931 -2.13858 0.0634662 1.1399e-023 0 -0 
1.32557 54.5374 -3.52411 -6.24313 -26.8863 -17.8184 0.544791 5.49166 0.791136 1.02002 10.9901 1.54019 1.02002 10.9901 1.54019 -4.41214 24.9346 1.86305 28.0892 -35.8662 12.3106 1.10427 -5.45918 4.01859 -25.224 50.3069 -53.6591 24.3017 8.34309 -21.8832 18.3242 5.23596 3.04731 7.95139e-016 7.95139e-016 1.59028e-015 -7.95139e-016 -2.28602e-015 7.95139e-016 -7.95139e-016 -3.77691e-015 -0 7.95139e-016 7.95139e-016 1.59028e-015 -0.0146995 -8.96983e-005 6.68251e-006 2.38542e-015 -5.96354e-016 2.38542e-015 7.95139e-016 7.95139e-016 1.59028e-015 -0.0186681 -0.00117055 5.36383e-005 -3.18055e-015 -1.11319e-014 -1.59028e-015 7.95139e-016 7.95139e-016 1.59028e-015 -0.0123552 -0.00327078 0.000682484 -7.95139e-016 -8.94531e-016 -1.59028e-015 7.95139e-016 7.95139e-016 1.59028e-015 -7.95139e-016 -2.28602e-015 7.95139e-016 -7.95139e-016 -3.77691e-015 -0 -12.9287 -1.03553 10.2816 65.4996 -9.71935 19.1863 -4.85246 2.59922 85.2556 -17.1175 -27.4284 -16.3159 -1.58963e-008 -6.87682e-007 -8.71907e-007 6.36111e-015 -3.57812e-015 -0 1.58963e-008 6.87682e-007 8.71907e-007 -1.58963e-008 -6.87682e-007 -8.71907e-007 0.0150383 -8.54654e-005 -1.61958e-006 -1.42876e-008 -6.87806e-007 -8.71817e-007 -1.58963e-008 -6.87682e-007 -8.71907e-007 0.0190023 -0.00119676 -5.31542e-005 1.38715e-008 6.87955e-007 8.71799e-007 -1.58963e-008 -6.87682e-007 -8.71907e-007 0.0122655 -0.00324448 -0.000673682 -6.36111e-015 0 7.95139e-016 -1.58963e-008 -6.87682e-007 -8.71907e-007 6.36111e-015 -3.57812e-015 -0 1.58963e-008 6.87682e-007 8.71907e-007 4.91396 -47.3823 -9.29405 2.33164 34.6804 -5.28807 -22.508 37.6477 5.38145 -9.93923e-017 -1.36664e-016 -3.18055e-015 18.909 -40.6876 35.5994 2.13374 39.6433 0.739358 3.40376 32.8231 -21.2804 6.85809e-009 3.05177e-008 -8.50756e-007 
1.32557 54.5374 -3.52411 -6.24313 -26.8863 -17.8184 0.544795 5.49166 0.791141 1.02002 10.9901 1.54019 1.02002 10.9901 1.54019 -4.41206 24.9337 1.863 28.273 -35.8256 12.5994 1.10427 -5.45918 4.01859 -25.224 50.3069 -53.6591 24.1602 8.32254 -22.2442 18.3479 5.23549 3.04722 2.14497e-007 2.35167e-007 3.42335e-008 -2.85996e-007 -3.13556e-007 -4.56447e-008 1.42998e-007 1.56778e-007 2.28224e-008 2.14497e-007 2.35167e-007 3.42335e-008 -0.0146722 -8.9055e-005 1.03118e-005 -3.34752e-007 6.29082e-007 4.62155e-007 2.14497e-007 2.35167e-007 3.42335e-008 -0.0187208 -0.00117191 5.16471e-005 1.42999e-007 1.56774e-007 2.28465e-008 2.14497e-007 2.35167e-007 3.42335e-008 -0.0122002 -0.00322833 0.000678048 -3.34947e-007 6.29362e-007 4.62094e-007 2.14497e-007 2.35167e-007 3.42335e-008 -2.85996e-007 -3.13556e-007 -4.56447e-008 1.42998e-007 1.56778e-007 2.28224e-008 -12.9287 -1.03553 10.2816 65.4996 -9.71935 19.1863 -4.85248 2.59922 85.2556 -17.1175 -27.4284 -16.3159 3.18055e-015 -3.18055e-015 7.95139e-016 -0 -5.1684e-015 -0 1.43452e-031 -5.1684e-015 1.59028e-015 3.18055e-015 -3.18055e-015 7.95139e-016 0.0150364 -8.44538e-005 -5.61894e-007 -3.18055e-015 3.97569e-016 3.97569e-015 3.18055e-015 -3.18055e-015 7.95139e-016 0.0189831 -0.00119637 -5.60662e-005 -0 0 7.95139e-016 3.18055e-015 -3.18055e-015 7.95139e-016 0.0122482 -0.0032436 -0.000675551 9.54166e-015 -1.19271e-015 1.59028e-015 3.18055e-015 -3.18055e-015 7.95139e-016 -0 -5.1684e-015 -0 1.43452e-031 -5.1684e-015 1.59028e-015 4.91396 -47.3823 -9.29405 2.33164 34.6804 -5.28807 -22.508 37.6477 5.38145 -9.93923e-017 -1.36664e-016 -3.18055e-015 18.909 -40.6876 35.5994 2.13374 39.6433 0.739358 3.40376 32.8231 -21.2804 6.85809e-009 3.05177e-008 -8.50756e-007 
1.32557 54.5375 -3.52411 -6.24313 -26.8863 -17.8184 0.544787 5.49166 0.791141 1.02002 10.9901 1.54019 1.02002 10.9901 1.54019 -4.41213 24.9342 1.86305 28.4566 -35.7842 12.8879 1.10427 -5.45918 4.01859 -25.224 50.3069 -53.6592 24.0185 8.30288 -22.6054 18.3716 5.23502 3.04714 -1.40016e-006 9.83287e-007 -4.38831e-008 -0 -3.77691e-015 -0 6.41524e-007 7.07401e-007 1.02177e-007 -1.40016e-006 9.83287e-007 -4.38831e-008 -0.0146329 -8.91419e-005 1.37631e-006 6.41526e-007 7.07388e-007 1.02267e-007 -1.40016e-006 9.83287e-007 -4.38831e-008 -0.0188246 -0.00118027 5.49348e-005 6.41527e-007 7.07384e-007 1.02287e-007 -1.40016e-006 9.83287e-007 -4.38831e-008 -0.0121298 -0.00321068 0.000660356 6.41532e-007 7.07387e-007 1.02234e-007 -1.40016e-006 9.83287e-007 -4.38831e-008 -0 -3.77691e-015 -0 6.41524e-007 7.07401e-007 1.02177e-007 -12.9287 -1.03553 10.2816 65.4996 -9.71935 19.1863 -4.85247 2.59923 85.2556 -17.1175 -27.4284 -16.3159 2.75869e-032 1.98785e-015 -7.95139e-016 -1.9162e-006 1.69715e-006 1.9278e-006 -3.18055e-015 1.15295e-014 7.95139e-016 2.75869e-032 1.98785e-015 -7.95139e-016 0.0150017 -9.90656e-005 6.15915e-006 3.18055e-015 -3.18055e-015 -0 2.75869e-032 1.98785e-015 -7.95139e-016 0.0189837 -0.00118433 -6.41706e-005 3.18055e-015 3.97569e-015 7.95139e-016 2.75869e-032 1.98785e-015 -7.95139e-016 0.0122521 -0.0032448 -0.000676432 1.10348e-032 7.95139e-016 -7.95139e-016 2.75869e-032 1.98785e-015 -7.95139e-016 -1.9162e-006 1.69715e-006 1.9278e-006 -3.18055e-015 1.15295e-014 7.95139e-016 4.91396 -47.3823 -9.29404 2.33164 34.6804 -5.28808 -22.508 37.6477 5.38145 1.16118e-007 -2.73882e-008 1.21959e-009 18.9089 -40.6876 35.5994 2.13373 39.6432 0.739356 3.40377 32.8231 -21.2804 2.06682e-009 -1.97915e-008 -2.10685e-009 
1.32557 54.5375 -3.52411 -6.24313 -26.8863 -17.8184 0.544788 5.49165 0.791121 1.02002 10.9901 1.54019 1.02002 10.9901 1.54019 -4.41206 24.9338 1.863 28.6398 -35.7421 13.1762 1.10427 -5.45918 4.0186 -25.224 50.3069 -53.6591 23.8765 8.28408 -22.967 18.3953 5.23455 3.04703 1.42122e-007 1.57621e-007 2.25893e-008 7.10608e-008 7.88103e-008 1.12947e-008 2.84243e-007 3.15241e-007 4.51786e-008 1.42122e-007 1.57621e-007 2.25893e-008 -0.014576 -8.8384e-005 -2.02506e-006 2.84244e-007 3.15236e-007 4.52185e-008 1.42122e-007 1.57621e-007 2.25893e-008 -0.0187881 -0.00117754 6.18369e-005 8.20988e-007 -1.06407e-007 -4.44279e-007 1.42122e-007 1.57621e-007 2.25893e-008 -0.012132 -0.00321274 0.000678781 8.21547e-007 -1.06611e-007 -4.44234e-007 1.42122e-007 1.57621e-007 2.25893e-008 7.10608e-008 7.88103e-008 1.12947e-008 2.84243e-007 3.15241e-007 4.51786e-008 -12.9287 -1.03553 10.2816 65.4996 -9.71935 19.1863 -4.85246 2.59922 85.2556 -17.1175 -27.4284 -16.3159 -3.18055e-015 -4.77083e-015 1.59028e-015 -6.36111e-015 -3.18055e-015 2.38542e-015 -6.36111e-015 -2.38542e-015 7.95139e-016 -3.18055e-015 -4.77083e-015 1.59028e-015 0.0149812 -8.35675e-005 -1.19586e-006 1.48969e-031 -3.57812e-015 2.38542e-015 -3.18055e-015 -4.77083e-015 1.59028e-015 0.0190077 -0.00119462 -5.74442e-005 1.38756e-008 6.87954e-007 8.71803e-007 -3.18055e-015 -4.77083e-015 1.59028e-015 0.0122502 -0.00324242 -0.000673637 -1.59028e-014 -1.59028e-015 6.36111e-015 -3.18055e-015 -4.77083e-015 1.59028e-015 -6.36111e-015 -3.18055e-015 2.38542e-015 -6.36111e-015 -2.38542e-015 7.95139e-016 4.91397 -47.3822 -9.29405 2.33163 34.6803 -5.28805 -22.508 37.6478 5.38146 3.36087e-007 -3.02396e-008 2.87847e-009 18.909 -40.6876 35.5994 2.13374 39.6433 0.73936 3.40377 32.8231 -21.2804 8.92483e-009 1.07262e-008 -8.52863e-007 
1.32557 54.5375 -3.52411 -6.24313 -26.8863 -17.8184 0.54479 5.49167 0.791148 1.02002 10.9901 1.54019 1.02002 10.9901 1.54019 -4.41205 24.9336 1.86299 28.8227 -35.6993 13.4642 1.10427 -5.45918 4.01859 -25.224 50.3069 -53.6591 23.7343 8.26617 -23.3289 18.419 5.23408 3.04695 -1.47684e-006 8.96385e-007 -4.8179e-008 -9.15519e-007 2.50643e-007 -5.21796e-008 -9.91764e-007 -1.10628e-006 -1.57304e-007 -1.47684e-006 8.96385e-007 -4.8179e-008 -0.0145802 -8.7567e-005 -5.98087e-007 -9.91765e-007 -1.10626e-006 -1.57444e-007 -1.47684e-006 8.96385e-007 -4.8179e-008 -0.0187168 -0.00117351 6.12848e-005 -9.91768e-007 -1.10625e-006 -1.57475e-007 -1.47684e-006 8.96385e-007 -4.8179e-008 -0.0123057 -0.00325694 0.00067024 -9.91776e-007 -1.10625e-006 -1.57395e-007 -1.47684e-006 8.96385e-007 -4.8179e-008 -9.15519e-007 2.50643e-007 -5.21796e-008 -9.91764e-007 -1.10628e-006 -1.57304e-007 -12.9287 -1.03552 10.2816 65.4996 -9.71935 19.1863 -4.85246 2.59922 85.2556 -17.1175 -27.4284 -16.3159 -3.18055e-015 3.97569e-016 -3.18055e-015 3.18055e-015 -7.95139e-016 -1.59028e-015 -3.18055e-015 7.95139e-016 -2.38542e-015 -3.18055e-015 3.97569e-016 -3.18055e-015 0.0150273 -8.89483e-005 -1.05357e-007 3.18055e-015 3.57812e-015 3.18055e-015 -3.18055e-015 3.97569e-016 -3.18055e-015 0.0190062 -0.00119727 -5.31646e-005 3.18055e-015 9.14409e-015 -7.95139e-016 -3.18055e-015 3.97569e-016 -3.18055e-015 0.0122928 -0.00325739 -0.00067787 3.18055e-015 0 3.18055e-015 -3.18055e-015 3.97569e-016 -3.18055e-015 3.18055e-015 -7.95139e-016 -1.59028e-015 -3.18055e-015 7.95139e-016 -2.38542e-015 4.91396 -47.3822 -9.29406 2.33163 34.6803 -5.28805 -22.508 37.6477 5.38147 1.2424e-017 1.2424e-016 3.18055e-015 18.909 -40.6876 35.5994 2.13374 39.6433 0.73936 3.40377 32.8231 -21.2804 8.92483e-009 1.07262e-008 -8.52863e-007 
